<?xml version="1.0" encoding="UTF-8" standalone="no"?>
<svg
   width="52.143879mm"
   height="16.164677mm"
   viewBox="0 0 52.143879 16.164677"
   version="1.1"
   id="svg8"
   inkscape:version="1.1.2 (0a00cf5339, 2022-02-04, custom)"
   sodipodi:docname="Notitas_Logo.svg"
   xmlns:inkscape="http://www.inkscape.org/namespaces/inkscape"
   xmlns:sodipodi="http://sodipodi.sourceforge.net/DTD/sodipodi-0.dtd"
   xmlns="http://www.w3.org/2000/svg"
   xmlns:svg="http://www.w3.org/2000/svg"
   xmlns:rdf="http://www.w3.org/1999/02/22-rdf-syntax-ns#"
   xmlns:cc="http://creativecommons.org/ns#"
   xmlns:dc="http://purl.org/dc/elements/1.1/">
  <defs
     id="defs2">
    <clipPath
       clipPathUnits="userSpaceOnUse"
       id="clipPath998">
      <rect
         style="fill:#ff62c2;stroke-width:1.04465;paint-order:fill markers stroke"
         id="rect1000"
         width="429.77667"
         height="285.75"
         x="-185.77826"
         y="-54.511253"
         ry="0.10338563" />
    </clipPath>
    <clipPath
       clipPathUnits="userSpaceOnUse"
       id="clipPath1106">
      <rect
         style="fill:#ff62c2;stroke-width:1.05833;paint-order:fill markers stroke"
         id="rect1108"
         width="430.27863"
         height="214.72887"
         x="-185.77826"
         y="-54.511253"
         ry="0.10649135" />
    </clipPath>
  </defs>
  <sodipodi:namedview
     id="base"
     pagecolor="#ffffff"
     bordercolor="#666666"
     borderopacity="1.0"
     inkscape:pageopacity="0.0"
     inkscape:pageshadow="2"
     inkscape:zoom="15.839192"
     inkscape:cx="39.743189"
     inkscape:cy="30.209874"
     inkscape:document-units="mm"
     inkscape:current-layer="layer2"
     inkscape:document-rotation="0"
     showgrid="false"
     inkscape:window-width="1920"
     inkscape:window-height="1011"
     inkscape:window-x="0"
     inkscape:window-y="0"
     inkscape:window-maximized="1"
     inkscape:pagecheckerboard="0"
     inkscape:snap-global="true"
     showguides="true"
     inkscape:guide-bbox="true"
     fit-margin-top="0"
     fit-margin-left="0"
     fit-margin-right="0"
     fit-margin-bottom="0">
    <sodipodi:guide
       position="160.65949,216.51176"
       orientation="0,-1"
       id="guide1753" />
    <sodipodi:guide
       position="108.27757,204.69354"
       orientation="0,-1"
       id="guide1755" />
    <sodipodi:guide
       position="100.08696,185.3708"
       orientation="1,0"
       id="guide1759" />
    <sodipodi:guide
       position="122.66993,188.09378"
       orientation="1,0"
       id="guide1761" />
    <sodipodi:guide
       position="134.49497,194.13145"
       orientation="0,-1"
       id="guide3365" />
    <sodipodi:guide
       position="148.4938,211.02815"
       orientation="0,-1"
       id="guide3658" />
    <inkscape:grid
       type="xygrid"
       id="grid5138"
       originx="179.09617"
       originy="-112.00991" />
    <sodipodi:guide
       position="111.8164,190.1627"
       orientation="1,0"
       id="guide7683" />
    <sodipodi:guide
       position="136.19941,199.80283"
       orientation="0,-1"
       id="guide7685" />
    <sodipodi:guide
       position="130.38629,213.09949"
       orientation="0,-1"
       id="guide8341" />
    <sodipodi:guide
       position="141.9457,210.35998"
       orientation="0,-1"
       id="guide8343" />
    <sodipodi:guide
       position="208.49581,227.53205"
       orientation="0,-1"
       id="guide27062" />
    <sodipodi:guide
       position="205.36551,190.1627"
       orientation="1,0"
       id="guide27064" />
    <sodipodi:guide
       position="179.09617,193.18651"
       orientation="1,0"
       id="guide27066" />
    <sodipodi:guide
       position="287.19736,193.75347"
       orientation="1,0"
       id="guide37027" />
    <sodipodi:guide
       position="251.14817,45.598238"
       orientation="1,0"
       id="guide37029" />
    <sodipodi:guide
       position="281.99494,201.40645"
       orientation="1,0"
       id="guide37325" />
    <sodipodi:guide
       position="255.40162,196.46196"
       orientation="1,0"
       id="guide37327" />
    <sodipodi:guide
       position="228.78523,79.284637"
       orientation="1,0"
       id="guide119363" />
    <sodipodi:guide
       position="313.50967,67.524777"
       orientation="1,0"
       id="guide119365" />
    <sodipodi:guide
       position="32.074844,0.052199222"
       orientation="0,-1"
       id="guide993" />
    <sodipodi:guide
       position="29.602601,16.155188"
       orientation="0,-1"
       id="guide1024" />
    <sodipodi:guide
       position="14.670201,10.87301"
       orientation="0,-1"
       id="guide20518" />
    <sodipodi:guide
       position="13.58352,10.164305"
       orientation="0,-1"
       id="guide20520" />
  </sodipodi:namedview>
  <metadata
     id="metadata5">
    <rdf:RDF>
      <cc:Work
         rdf:about="">
        <dc:format>image/svg+xml</dc:format>
        <dc:type
           rdf:resource="http://purl.org/dc/dcmitype/StillImage" />
      </cc:Work>
    </rdf:RDF>
  </metadata>
  <g
     inkscape:label="Capa 1"
     inkscape:groupmode="layer"
     id="layer1"
     transform="translate(179.09616,-112.00991)" />
  <g
     inkscape:groupmode="layer"
     id="layer2"
     inkscape:label="logo"
     transform="translate(179.09616,-112.00991)">
    <rect
       style="fill:#26c2ff;fill-opacity:1;stroke:#8bdeff;stroke-width:0.605;stroke-miterlimit:4;stroke-dasharray:none;stroke-opacity:1;paint-order:fill markers stroke"
       id="rect69379-5-9"
       width="16.097479"
       height="15.559676"
       x="-178.79366"
       y="112.31241"
       ry="0" />
    <ellipse
       style="fill:#000000;fill-opacity:1;stroke-width:0.170347;paint-order:fill markers stroke"
       id="ellipse69385-6-2"
       cx="-166.0938"
       cy="118.10574"
       rx="0.79804838"
       ry="1.3423944" />
    <path
       style="fill:none;stroke:#000000;stroke-width:0.452676;stroke-linecap:round;stroke-linejoin:round;stroke-miterlimit:4;stroke-dasharray:none;stroke-opacity:1"
       d="m -174.38801,121.51749 c 1.21848,2.00755 5.36663,2.11848 6.90011,-0.028"
       id="path69387-9-6"
       sodipodi:nodetypes="cc" />
    <ellipse
       style="fill:#ffffff;fill-opacity:1;stroke-width:0.252533;stroke-linejoin:round;stroke-miterlimit:4;stroke-dasharray:none;paint-order:fill markers stroke"
       id="ellipse69389-3-6"
       cx="-165.81802"
       cy="117.64622"
       rx="0.27325791"
       ry="0.34810889" />
    <rect
       style="fill:#ff59ae;fill-opacity:1;stroke-width:0.136264;paint-order:fill markers stroke"
       id="rect69391-7-4"
       width="1.9877336"
       height="0.60983872"
       x="-165.84035"
       y="120.38696"
       ry="0.30491936" />
    <rect
       style="fill:#ff59ae;fill-opacity:1;stroke-width:0.136264;paint-order:fill markers stroke"
       id="rect69397-2-0"
       width="1.9877336"
       height="0.60983872"
       x="-178.00539"
       y="120.38696"
       ry="0.30491936" />
    <ellipse
       style="fill:#000000;fill-opacity:1;stroke-width:0.170347;paint-order:fill markers stroke"
       id="ellipse69403-7-7"
       cx="-175.5869"
       cy="118.10574"
       rx="0.79804838"
       ry="1.3423944" />
    <ellipse
       style="fill:#ffffff;fill-opacity:1;stroke-width:0.24325;stroke-linejoin:round;stroke-miterlimit:4;stroke-dasharray:none;paint-order:fill markers stroke"
       id="ellipse69405-4-1"
       cx="-175.27495"
       cy="117.63923"
       rx="0.27325791"
       ry="0.32298711" />
    <rect
       style="fill:#ffffff;fill-opacity:0.588641;stroke-width:0.232454;paint-order:fill markers stroke"
       id="rect69381-7"
       width="4.4498019"
       height="0.79277754"
       x="-167.71021"
       y="112.74082"
       ry="0.39638877" />
    <rect
       style="fill:#ffffff;fill-opacity:0.588641;stroke-width:0.092297;paint-order:fill markers stroke"
       id="rect69383-5"
       width="0.71566504"
       height="0.77710873"
       x="-169.99525"
       y="112.74082"
       ry="0.38855436" />
    <g
       aria-label="Notitas"
       id="text69409-4-2"
       style="font-size:10.5833px;line-height:1.25;font-family:Angella;-inkscape-font-specification:Angella;fill:#26c2ff;stroke-width:0.264583"
       transform="translate(-2.1166667,-3.9883679)">
      <path
         d="m -158.79729,125.48999 0.1447,-6.61973 3.03856,2.67166 0.031,-2.65099 1.86034,0.0568 -0.0413,6.74375 -2.83186,-2.37194 -0.0827,2.11356 z"
         id="path861" />
      <path
         d="m -150.48774,120.58591 q 1.11104,0 1.88618,0.7338 0.78031,0.74414 0.78031,1.83968 0,1.08003 -0.78031,1.76732 -0.75964,0.66146 -1.88618,0.66146 -1.13171,0 -1.88619,-0.66146 -0.78031,-0.68729 -0.78031,-1.76732 0,-1.09554 0.78031,-1.83968 0.76998,-0.7338 1.88619,-0.7338 z m 0,1.8035 q -0.28422,0 -0.48576,0.22737 -0.20154,0.22221 -0.20154,0.54261 0,0.31522 0.20154,0.5426 0.20154,0.2222 0.48576,0.2222 0.28422,0 0.48575,-0.2222 0.20154,-0.22738 0.20154,-0.5426 0,-0.3204 -0.20154,-0.54261 -0.20153,-0.22737 -0.48575,-0.22737 z"
         id="path863" />
      <path
         d="m -143.84218,125.2006 q -0.3824,0.25321 -0.9095,0.34623 -0.23254,0.0413 -0.44958,0.0413 -0.45475,0 -0.82166,-0.18087 -0.59427,-0.28938 -0.64078,-1.03352 h -0.0103 l 0.005,-0.12403 v -0.0362 l 0.0982,-2.29442 -0.94051,0.0465 0.12919,-1.39009 0.85266,0.0258 0.0827,-1.25573 1.819,-0.39791 0.005,1.71048 1.17305,0.0362 -0.062,1.12654 -1.03352,-0.005 0.0465,1.48828 q 0.0465,0.5271 0.27906,0.60461 0.17053,0.0258 0.22737,0.0258 z"
         id="path865" />
      <path
         d="m -142.82932,121.18018 1.79317,-0.10852 0.35139,4.38215 -2.35643,0.031 0.20153,-4.11343 z m -0.0258,-0.49609 -0.28422,-1.54512 2.1549,-0.0879 -0.0103,1.51928 z"
         id="path867" />
      <path
         d="m -136.60233,125.2006 q -0.38241,0.25321 -0.9095,0.34623 -0.23255,0.0413 -0.44959,0.0413 -0.45475,0 -0.82165,-0.18087 -0.59428,-0.28938 -0.64079,-1.03352 h -0.0103 l 0.005,-0.12403 v -0.0362 l 0.0982,-2.29442 -0.94051,0.0465 0.12919,-1.39009 0.85266,0.0258 0.0827,-1.25573 1.81901,-0.39791 0.005,1.71048 1.17305,0.0362 -0.062,1.12654 -1.03353,-0.005 0.0465,1.48828 q 0.0465,0.5271 0.27905,0.60461 0.17053,0.0258 0.22738,0.0258 z"
         id="path869" />
      <path
         d="m -133.48625,120.7306 q 0.40824,0 0.78548,0.11886 v -0.0258 l 0.0155,-0.20154 1.68465,-0.11885 0.59427,4.91441 -2.16523,0.11885 -0.0413,-0.32039 q -0.30489,0.28422 -0.87333,0.29456 -1.02319,0 -1.70532,-0.59945 -0.70796,-0.56844 -0.70796,-1.75182 0,-1.14722 0.70796,-1.76733 0.69763,-0.66146 1.70532,-0.66146 z m 0.20154,1.55546 q -0.28422,0 -0.48576,0.22737 -0.20154,0.22221 -0.20154,0.64596 0,0.41857 0.20154,0.64595 0.20154,0.22221 0.48576,0.22221 0.28421,0 0.48575,-0.22221 0.20154,-0.22738 0.20154,-0.64595 0,-0.42375 -0.20154,-0.64596 -0.20154,-0.22737 -0.48575,-0.22737 z"
         id="path871" />
      <path
         d="m -127.34194,125.58817 q -1.55546,0 -2.29443,-0.60461 -0.45992,-0.48576 -0.45992,-0.93534 0,-0.14986 0.0465,-0.35657 l 2.14973,0.1602 q -0.005,0.0827 -0.005,0.10852 0,0.10852 0.0568,0.19637 0.0724,0.0982 0.17053,0.11885 0.0413,0.005 0.0775,0.005 0.11368,0 0.2222,-0.0672 0.1602,-0.11885 0.19121,-0.28939 v -0.0362 q 0,-0.25321 -0.37724,-0.3824 -0.0672,-0.0207 -0.91984,-0.20671 -0.63045,-0.13436 -0.93534,-0.34623 -0.42891,-0.29972 -0.42891,-0.84232 0,-0.59945 0.68212,-1.05937 0.64079,-0.43408 1.53479,-0.48575 0.11886,-0.005 0.23254,-0.005 1.06453,0 1.63814,0.29972 0.75447,0.49093 0.86816,1.27124 l -1.91202,0.0982 q -0.005,-0.0672 -0.0207,-0.14986 -0.0568,-0.12919 -0.11886,-0.17053 -0.0672,-0.0568 -0.23254,-0.0672 -0.1602,0 -0.24288,0.10852 -0.0517,0.0827 -0.0517,0.21187 v 0.0207 q 0.005,0.3359 1.17305,0.57878 0.66145,0.14986 1.05936,0.49092 0.40308,0.34623 0.40308,0.77515 0,0.62011 -0.73381,1.14721 -0.72863,0.41341 -1.77249,0.41341 z"
         id="path873" />
    </g>
    <rect
       style="fill:#ff59ae;fill-opacity:1;stroke:#ffb1ea;stroke-width:0.288;stroke-miterlimit:4;stroke-dasharray:none;stroke-opacity:1;paint-order:fill markers stroke"
       id="rect74591-8"
       width="3.4800134"
       height="3.3637524"
       x="157.75015"
       y="-125.45822"
       ry="0"
       transform="rotate(179.91849)" />
    <rect
       style="fill:#fedb4d;fill-opacity:1;stroke:#fff4b1;stroke-width:0.288;stroke-miterlimit:4;stroke-dasharray:none;stroke-opacity:1;paint-order:fill markers stroke"
       id="rect1133"
       width="3.4800134"
       height="3.3637524"
       x="148.22528"
       y="-125.4718"
       ry="0"
       transform="rotate(179.91849)" />
    <rect
       style="fill:#26c2ff;fill-opacity:1;stroke:#8bdeff;stroke-width:0.288;stroke-miterlimit:4;stroke-dasharray:none;stroke-opacity:1;paint-order:fill markers stroke"
       id="rect6757"
       width="3.4800134"
       height="3.3637524"
       x="138.17125"
       y="-125.48614"
       ry="0"
       transform="rotate(179.91849)" />
    <rect
       style="fill:#8e51f6;fill-opacity:1;stroke:#b68bff;stroke-width:0.288;stroke-miterlimit:4;stroke-dasharray:none;stroke-opacity:1;paint-order:fill markers stroke"
       id="rect16320"
       width="3.4800134"
       height="3.3637524"
       x="128.11722"
       y="-125.50047"
       ry="0"
       transform="rotate(179.91849)" />
  </g>
</svg>
